<svg data-v-423bf9ae="" xmlns="http://www.w3.org/2000/svg" viewBox="0 0 487 100" class="iconLeft"><!----><!----><!----><g data-v-423bf9ae="" id="4b7f4ac1-a91a-4f50-ab65-474df7faad75" fill="white" transform="matrix(4.792332093150517,0,0,4.792332093150517,121.9113980103408,-51.54146603519072)"><path d="M12.80 26.49L12.49 27.12L8.09 27.12L8.09 26.61L9.41 25.58L9.41 21.99L4.03 21.99L4.03 26.00L5.52 26.49L5.21 27.12L0.81 27.12L0.81 26.61L2.13 25.58L2.13 17.23L0.64 16.76L0.97 16.13L5.36 16.13L5.36 16.63L4.03 17.68L4.03 21.29L9.41 21.29L9.41 17.23L7.92 16.76L8.25 16.13L12.64 16.13L12.64 16.63L11.31 17.68L11.31 26.01L12.80 26.49ZM18.68 19.53L18.68 19.53Q19.63 19.53 20.38 20.01L20.38 20.01L20.38 20.01Q21.13 20.50 21.55 21.32L21.55 21.32L21.55 21.32Q21.97 22.15 21.97 23.16L21.97 23.16L21.97 23.16Q21.97 24.25 21.30 25.19L21.30 25.19L21.30 25.19Q20.64 26.14 19.63 26.71L19.63 26.71L19.63 26.71Q18.62 27.27 17.68 27.27L17.68 27.27L17.68 27.27Q16.74 27.27 15.99 26.79L15.99 26.79L15.99 26.79Q15.25 26.31 14.82 25.48L14.82 25.48L14.82 25.48Q14.39 24.65 14.39 23.65L14.39 23.65L14.39 23.65Q14.39 22.55 15.06 21.61L15.06 21.61L15.06 21.61Q15.72 20.66 16.73 20.10L16.73 20.10L16.73 20.10Q17.74 19.53 18.68 19.53L18.68 19.53ZM17.86 20.80L17.86 20.80Q16.35 20.80 16.35 22.97L16.35 22.97L16.35 22.97Q16.35 24.28 16.91 25.14L16.91 25.14L16.91 25.14Q17.46 26.01 18.49 26.01L18.49 26.01L18.49 26.01Q19.24 26.01 19.61 25.45L19.61 25.45L19.61 25.45Q19.99 24.89 19.99 23.81L19.99 23.81L19.99 23.81Q19.99 22.53 19.44 21.66L19.44 21.66L19.44 21.66Q18.89 20.80 17.86 20.80L17.86 20.80ZM26.42 26.05L27.68 26.52L27.36 27.15L23.35 27.15L23.35 26.64L24.60 25.65L24.60 17.22L23.35 16.35L23.35 15.85L25.82 14.91L26.42 14.91L26.42 26.05ZM32.47 26.52L32.16 27.15L29.68 27.15L27.12 23.44L29.71 21.28L28.29 20.31L28.60 19.68L32.09 19.68L32.09 20.19L28.90 22.86L31.16 26.03L32.47 26.52ZM39.59 24.68L39.59 24.68Q39.59 24.25 39.24 23.87L39.24 23.87L39.24 23.87Q38.89 23.49 38.37 23.18L38.37 23.18L38.37 23.18Q37.86 22.86 36.97 22.40L36.97 22.40L36.97 22.40Q35.92 21.85 35.27 21.45L35.27 21.45L35.27 21.45Q34.62 21.04 34.17 20.49L34.17 20.49L34.17 20.49Q33.71 19.94 33.71 19.26L33.71 19.26L33.71 19.26Q33.71 18.56 34.31 17.76L34.31 17.76L34.31 17.76Q34.90 16.95 35.77 16.40L35.77 16.40L35.77 16.40Q36.64 15.85 37.37 15.85L37.37 15.85L37.37 15.85Q38.25 15.85 39.42 16.06L39.42 16.06L39.42 16.06Q40.59 16.27 41.13 16.51L41.13 16.51L41.13 19.29L40.45 19.29L40.45 19.29Q39.79 18.16 38.99 17.53L38.99 17.53L38.99 17.53Q38.19 16.90 37.31 16.90L37.31 16.90L37.31 16.90Q36.55 16.90 36.12 17.37L36.12 17.37L36.12 17.37Q35.69 17.84 35.69 18.58L35.69 18.58L35.69 18.58Q35.69 19.04 36.04 19.44L36.04 19.44L36.04 19.44Q36.40 19.84 36.93 20.16L36.93 20.16L36.93 20.16Q37.46 20.48 38.36 20.94L38.36 20.94L38.36 20.94Q39.42 21.50 40.05 21.90L40.05 21.90L40.05 21.90Q40.67 22.29 41.11 22.82L41.11 22.82L41.11 22.82Q41.55 23.35 41.55 24.01L41.55 24.01L41.55 24.01Q41.55 24.71 40.91 25.52L40.91 25.52L40.91 25.52Q40.28 26.32 39.35 26.87L39.35 26.87L39.35 26.87Q38.43 27.43 37.67 27.43L37.67 27.43L37.67 27.43Q36.75 27.43 35.48 27.22L35.48 27.22L35.48 27.22Q34.20 27.01 33.64 26.77L33.64 26.77L33.64 23.98L34.33 23.98L34.33 23.98Q35.03 25.12 35.92 25.75L35.92 25.75L35.92 25.75Q36.81 26.38 37.74 26.38L37.74 26.38L37.74 26.38Q38.30 26.38 38.72 26.14L38.72 26.14L38.72 26.14Q39.14 25.90 39.37 25.52L39.37 25.52L39.37 25.52Q39.59 25.13 39.59 24.68L39.59 24.68ZM48.75 26.04L47.33 27.16L47.33 27.16Q46.98 27.27 46.48 27.27L46.48 27.27L46.48 27.27Q45.28 27.27 44.72 26.66L44.72 26.66L44.72 26.66Q44.17 26.05 44.17 24.78L44.17 24.78L44.17 20.73L42.66 20.73L42.66 20.13L45.39 17.00L45.99 17.00L45.99 20.09L48.51 20.09L48.51 20.73L45.99 20.73L45.99 24.89L45.99 24.89Q45.99 26.00 47.08 26.00L47.08 26.00L47.08 26.00Q47.38 26.00 47.64 25.88L47.64 25.88L47.64 25.88Q47.91 25.76 48.33 25.45L48.33 25.45L48.75 26.04ZM57.44 26.50L57.13 27.13L54.36 27.13L54.36 25.91L52.78 27.16L52.78 27.16Q52.50 27.27 52.08 27.27L52.08 27.27L52.08 27.27Q50.85 27.27 50.30 26.66L50.30 26.66L50.30 26.66Q49.76 26.05 49.76 25.19L49.76 25.19L49.76 25.19Q49.76 24.68 50.11 24.19L50.11 24.19L50.11 24.19Q50.46 23.69 51.13 23.24L51.13 23.24L54.36 23.24L54.36 22.48L54.36 22.48Q54.36 20.85 52.61 20.85L52.61 20.85L52.61 20.85Q51.73 20.85 50.40 21.84L50.40 21.84L49.98 21.25L51.98 19.67L51.98 19.67Q52.63 19.53 53.38 19.53L53.38 19.53L53.38 19.53Q54.71 19.53 55.45 20.17L55.45 20.17L55.45 20.17Q56.18 20.82 56.18 22.04L56.18 22.04L56.18 26.01L57.44 26.50ZM52.58 25.94L52.58 25.94Q53.41 25.94 54.36 25.20L54.36 25.20L54.36 23.88L51.93 23.88L51.93 23.88Q51.76 24.09 51.69 24.30L51.69 24.30L51.69 24.30Q51.62 24.51 51.62 24.77L51.62 24.77L51.62 24.77Q51.62 25.26 51.88 25.60L51.88 25.60L51.88 25.60Q52.15 25.94 52.58 25.94L52.58 25.94ZM62.71 19.53L62.71 19.53Q63.29 19.53 64.08 19.69L64.08 19.69L64.08 19.69Q64.86 19.85 65.21 20.05L65.21 20.05L65.21 22.30L64.61 22.30L64.61 22.30Q64.06 21.60 63.36 21.20L63.36 21.20L63.36 21.20Q62.66 20.80 61.91 20.80L61.91 20.80L61.91 20.80Q61.29 20.80 60.98 21.36L60.98 21.36L60.98 21.36Q60.66 21.91 60.66 22.97L60.66 22.97L60.66 22.97Q60.66 24.26 61.22 25.12L61.22 25.12L61.22 25.12Q61.77 25.97 62.80 25.97L62.80 25.97L62.80 25.97Q63.62 25.97 65.14 24.88L65.14 24.88L65.56 25.47L63.43 27.15L63.43 27.15Q62.83 27.27 61.99 27.27L61.99 27.27L61.99 27.27Q61.05 27.27 60.30 26.79L60.30 26.79L60.30 26.79Q59.56 26.31 59.13 25.48L59.13 25.48L59.13 25.48Q58.70 24.65 58.70 23.65L58.70 23.65L58.70 23.65Q58.70 22.55 59.33 21.61L59.33 21.61L59.33 21.61Q59.95 20.66 60.89 20.10L60.89 20.10L60.89 20.10Q61.82 19.53 62.71 19.53L62.71 19.53ZM69.93 26.05L71.19 26.52L70.87 27.15L66.86 27.15L66.86 26.64L68.11 25.65L68.11 17.22L66.86 16.35L66.86 15.85L69.33 14.91L69.93 14.91L69.93 26.05ZM75.98 26.52L75.67 27.15L73.19 27.15L70.63 23.44L73.22 21.28L71.81 20.31L72.11 19.68L75.60 19.68L75.60 20.19L72.41 22.86L74.68 26.03L75.98 26.52Z"></path></g><!----><g data-v-423bf9ae="" id="c966f377-331a-4d02-b81b-39ad72c34191" transform="matrix(1.0531667073567708,0,0,1.0531667073567708,364.8927711956203,-274.8001632556164)" stroke="none" fill="white"><path d="M-246.139 275.907s-15.372-14.692-26.936-14.692c-7.094 0-15.51 5.599-15.51 5.599s-2.992-2.545-6.257-2.545h-1.035H-296.967c-3.265 0-6.258 2.545-6.258 2.545s-8.413-5.599-15.507-5.599c-11.564 0-26.936 14.692-26.936 14.692s-1.344 15.906 7.346 25.303c5.033 5.439 13.876 7.891 13.876 7.891l4.644-5.309-.017 52.208h17.957v-25.617l3.062 25.582h5.815l3.041-25.585V356h17.873l.068-52.208 4.642 5.309s8.842-2.452 13.875-7.891c8.69-9.397 7.347-25.303 7.347-25.303zm-62.253 4.74a2.468 2.468 0 1 1-.002 4.936 2.468 2.468 0 0 1 .002-4.936zm5.034 50.287c-.727.573-2.041-.271-2.041-.271s-4.373-2.717-5.851-8.164c-1.29-4.76-.951-17.141-.951-17.141h6.256s-.226 15.511.272 18.503c.478 2.854 2.447 5.101 2.447 5.101s.818 1.224-.132 1.972zm19.944-50.287a2.468 2.468 0 1 1 0 4.94 2.468 2.468 0 0 1 0-4.94zm2.857 41.852c-1.479 5.447-5.849 8.164-5.849 8.164s-1.313.844-2.039.271c-.954-.748-.14-1.972-.14-1.972s1.976-2.246 2.45-5.101c.498-2.992.271-18.503.271-18.503h6.26s.341 12.381-.953 17.141z"></path></g><!----></svg>