<svg data-v-423bf9ae="" xmlns="http://www.w3.org/2000/svg" viewBox="0 0 63.09788902787102 60" class="icon"><!----><!----><!----><!----><g data-v-423bf9ae="" id="8c0cb799-860d-4991-9022-2a4ada0131e7" transform="matrix(0.633011528003825,0,0,0.633011528003825,218.85931767156347,-165.3521385461295)" stroke="none" fill="black"><path d="M-246.139 275.907s-15.372-14.692-26.936-14.692c-7.094 0-15.51 5.599-15.51 5.599s-2.992-2.545-6.257-2.545h-1.035H-296.967c-3.265 0-6.258 2.545-6.258 2.545s-8.413-5.599-15.507-5.599c-11.564 0-26.936 14.692-26.936 14.692s-1.344 15.906 7.346 25.303c5.033 5.439 13.876 7.891 13.876 7.891l4.644-5.309-.017 52.208h17.957v-25.617l3.062 25.582h5.815l3.041-25.585V356h17.873l.068-52.208 4.642 5.309s8.842-2.452 13.875-7.891c8.69-9.397 7.347-25.303 7.347-25.303zm-62.253 4.74a2.468 2.468 0 1 1-.002 4.936 2.468 2.468 0 0 1 .002-4.936zm5.034 50.287c-.727.573-2.041-.271-2.041-.271s-4.373-2.717-5.851-8.164c-1.29-4.76-.951-17.141-.951-17.141h6.256s-.226 15.511.272 18.503c.478 2.854 2.447 5.101 2.447 5.101s.818 1.224-.132 1.972zm19.944-50.287a2.468 2.468 0 1 1 0 4.94 2.468 2.468 0 0 1 0-4.94zm2.857 41.852c-1.479 5.447-5.849 8.164-5.849 8.164s-1.313.844-2.039.271c-.954-.748-.14-1.972-.14-1.972s1.976-2.246 2.45-5.101c.498-2.992.271-18.503.271-18.503h6.26s.341 12.381-.953 17.141z"></path></g><!----></svg>